<svg width="20" height="20" viewBox="0 0 20 20" fill="none" xmlns="http://www.w3.org/2000/svg">
<path d="M6.422 18.618C8.178 19.54 9.056 20 10 20V10L0.638 5.073C0.624395 5.09517 0.61106 5.1175 0.598 5.14C5.96046e-08 6.154 0 7.417 0 9.942V10.059C0 12.583 -1.19209e-07 13.846 0.597 14.86C1.195 15.875 2.271 16.44 4.422 17.569L6.422 18.618Z" fill="black"/>
<path opacity="0.7" d="M15.5769 2.432L13.5769 1.382C11.8219 0.461 10.9439 0 9.99994 0C9.05494 0 8.17794 0.46 6.42194 1.382L4.42194 2.432C2.31794 3.536 1.24194 4.1 0.637939 5.072L9.99994 10L19.3619 5.073C18.7559 4.1 17.6819 3.536 15.5769 2.432Z" fill="black"/>
<path opacity="0.5" d="M19.403 5.14C19.3896 5.1175 19.3759 5.09516 19.362 5.073L10 10V20C10.944 20 11.822 19.54 13.578 18.618L15.578 17.568C17.729 16.439 18.805 15.875 19.403 14.86C20 13.846 20 12.583 20 10.06V9.943C20 7.418 20 6.154 19.403 5.14Z" fill="black"/>
<path d="M4.32295 2.48401L4.42295 2.43201L5.91595 1.64801L15.016 6.65301L19.041 4.64201C19.178 4.79701 19.298 4.96201 19.403 5.14001C19.553 5.39401 19.665 5.66401 19.749 5.96501L15.75 7.96401V11C15.75 11.1989 15.6709 11.3897 15.5303 11.5303C15.3896 11.671 15.1989 11.75 15 11.75C14.801 11.75 14.6103 11.671 14.4696 11.5303C14.329 11.3897 14.25 11.1989 14.25 11V8.71401L10.75 10.464V19.904C10.5049 19.9669 10.253 19.9991 9.99995 20C9.75195 20 9.50695 19.968 9.24995 19.904V10.464L0.251953 5.96401C0.335953 5.66401 0.447953 5.39401 0.597953 5.14001C0.702069 4.96259 0.823315 4.79579 0.959953 4.64201L9.99995 9.16201L13.387 7.46901L4.32295 2.48401Z" fill="black"/>
</svg>
